<mxfile host="app.diagrams.net" modified="2024-01-22T16:53:41.541Z" agent="Mozilla/5.0 (Windows NT 10.0; Win64; x64; rv:121.0) Gecko/20100101 Firefox/121.0" etag="5OsKHpZQQ5cbUWjXg9Ws" version="22.1.21" type="device">
  <diagram name="Page-1" id="nw5mUn0yC72Vp9tfD5t6">
    <mxGraphModel dx="2074" dy="1142" grid="1" gridSize="10" guides="1" tooltips="1" connect="1" arrows="1" fold="1" page="1" pageScale="1" pageWidth="850" pageHeight="1100" math="0" shadow="0">
      <root>
        <mxCell id="0" />
        <mxCell id="1" parent="0" />
        <mxCell id="Wlid-hJeQuDWqY3R4Ut1-16" value="Workloads OU" style="rounded=0;whiteSpace=wrap;html=1;fillColor=none;verticalAlign=top;spacing=0;" vertex="1" parent="1">
          <mxGeometry x="200" y="800" width="180" height="340" as="geometry" />
        </mxCell>
        <mxCell id="Wlid-hJeQuDWqY3R4Ut1-14" value="Infrastructure OU" style="rounded=0;whiteSpace=wrap;html=1;fillColor=none;verticalAlign=top;spacing=0;" vertex="1" parent="1">
          <mxGeometry x="200" y="400" width="180" height="340" as="geometry" />
        </mxCell>
        <mxCell id="Wlid-hJeQuDWqY3R4Ut1-13" value="Security OU" style="rounded=0;whiteSpace=wrap;html=1;fillColor=none;verticalAlign=top;spacing=0;" vertex="1" parent="1">
          <mxGeometry x="200" y="10" width="180" height="340" as="geometry" />
        </mxCell>
        <mxCell id="Wlid-hJeQuDWqY3R4Ut1-1" value="&lt;div&gt;AWS Account&lt;/div&gt;&lt;div&gt;Org Mgmt&lt;/div&gt;" style="points=[[0,0],[0.25,0],[0.5,0],[0.75,0],[1,0],[1,0.25],[1,0.5],[1,0.75],[1,1],[0.75,1],[0.5,1],[0.25,1],[0,1],[0,0.75],[0,0.5],[0,0.25]];outlineConnect=0;gradientColor=none;html=1;whiteSpace=wrap;fontSize=12;fontStyle=0;container=1;pointerEvents=0;collapsible=0;recursiveResize=0;shape=mxgraph.aws4.group;grIcon=mxgraph.aws4.group_account;strokeColor=#CD2264;fillColor=none;verticalAlign=top;align=left;spacingLeft=30;fontColor=#CD2264;dashed=0;" vertex="1" parent="1">
          <mxGeometry x="40" y="40" width="120" height="120" as="geometry" />
        </mxCell>
        <mxCell id="Wlid-hJeQuDWqY3R4Ut1-22" value="Enterprise AD" style="outlineConnect=0;dashed=0;verticalLabelPosition=bottom;verticalAlign=top;align=center;html=1;shape=mxgraph.aws3.directory_service;fillColor=#759C3E;gradientColor=none;" vertex="1" parent="Wlid-hJeQuDWqY3R4Ut1-1">
          <mxGeometry x="45" y="45" width="30" height="30" as="geometry" />
        </mxCell>
        <mxCell id="Wlid-hJeQuDWqY3R4Ut1-3" value="&lt;div&gt;AWS Account&lt;/div&gt;&lt;div&gt;Security Tooling&lt;br&gt;&lt;/div&gt;" style="points=[[0,0],[0.25,0],[0.5,0],[0.75,0],[1,0],[1,0.25],[1,0.5],[1,0.75],[1,1],[0.75,1],[0.5,1],[0.25,1],[0,1],[0,0.75],[0,0.5],[0,0.25]];outlineConnect=0;gradientColor=none;html=1;whiteSpace=wrap;fontSize=12;fontStyle=0;container=1;pointerEvents=0;collapsible=0;recursiveResize=0;shape=mxgraph.aws4.group;grIcon=mxgraph.aws4.group_account;strokeColor=#CD2264;fillColor=none;verticalAlign=top;align=left;spacingLeft=30;fontColor=#CD2264;dashed=0;" vertex="1" parent="1">
          <mxGeometry x="230" y="40" width="120" height="120" as="geometry" />
        </mxCell>
        <mxCell id="Wlid-hJeQuDWqY3R4Ut1-6" value="&lt;div&gt;AWS Account&lt;/div&gt;&lt;div&gt;Log Archive&lt;br&gt;&lt;/div&gt;" style="points=[[0,0],[0.25,0],[0.5,0],[0.75,0],[1,0],[1,0.25],[1,0.5],[1,0.75],[1,1],[0.75,1],[0.5,1],[0.25,1],[0,1],[0,0.75],[0,0.5],[0,0.25]];outlineConnect=0;gradientColor=none;html=1;whiteSpace=wrap;fontSize=12;fontStyle=0;container=1;pointerEvents=0;collapsible=0;recursiveResize=0;shape=mxgraph.aws4.group;grIcon=mxgraph.aws4.group_account;strokeColor=#CD2264;fillColor=none;verticalAlign=top;align=left;spacingLeft=30;fontColor=#CD2264;dashed=0;" vertex="1" parent="1">
          <mxGeometry x="230" y="200" width="120" height="120" as="geometry" />
        </mxCell>
        <mxCell id="Wlid-hJeQuDWqY3R4Ut1-7" value="&lt;div&gt;AWS Account&lt;/div&gt;&lt;div&gt;Network&lt;br&gt;&lt;/div&gt;" style="points=[[0,0],[0.25,0],[0.5,0],[0.75,0],[1,0],[1,0.25],[1,0.5],[1,0.75],[1,1],[0.75,1],[0.5,1],[0.25,1],[0,1],[0,0.75],[0,0.5],[0,0.25]];outlineConnect=0;gradientColor=none;html=1;whiteSpace=wrap;fontSize=12;fontStyle=0;container=1;pointerEvents=0;collapsible=0;recursiveResize=0;shape=mxgraph.aws4.group;grIcon=mxgraph.aws4.group_account;strokeColor=#CD2264;fillColor=none;verticalAlign=top;align=left;spacingLeft=30;fontColor=#CD2264;dashed=0;" vertex="1" parent="1">
          <mxGeometry x="230" y="430" width="120" height="120" as="geometry" />
        </mxCell>
        <mxCell id="Wlid-hJeQuDWqY3R4Ut1-8" value="&lt;div&gt;AWS Account&lt;/div&gt;&lt;div&gt;Shared Services&lt;/div&gt;" style="points=[[0,0],[0.25,0],[0.5,0],[0.75,0],[1,0],[1,0.25],[1,0.5],[1,0.75],[1,1],[0.75,1],[0.5,1],[0.25,1],[0,1],[0,0.75],[0,0.5],[0,0.25]];outlineConnect=0;gradientColor=none;html=1;whiteSpace=wrap;fontSize=12;fontStyle=0;container=1;pointerEvents=0;collapsible=0;recursiveResize=0;shape=mxgraph.aws4.group;grIcon=mxgraph.aws4.group_account;strokeColor=#CD2264;fillColor=none;verticalAlign=top;align=left;spacingLeft=30;fontColor=#CD2264;dashed=0;" vertex="1" parent="1">
          <mxGeometry x="230" y="590" width="120" height="120" as="geometry" />
        </mxCell>
        <mxCell id="Wlid-hJeQuDWqY3R4Ut1-9" value="AWS Account&lt;br&gt;Proj1 Nonprod" style="points=[[0,0],[0.25,0],[0.5,0],[0.75,0],[1,0],[1,0.25],[1,0.5],[1,0.75],[1,1],[0.75,1],[0.5,1],[0.25,1],[0,1],[0,0.75],[0,0.5],[0,0.25]];outlineConnect=0;gradientColor=none;html=1;whiteSpace=wrap;fontSize=12;fontStyle=0;container=1;pointerEvents=0;collapsible=0;recursiveResize=0;shape=mxgraph.aws4.group;grIcon=mxgraph.aws4.group_account;strokeColor=#CD2264;fillColor=none;verticalAlign=top;align=left;spacingLeft=30;fontColor=#CD2264;dashed=0;" vertex="1" parent="1">
          <mxGeometry x="230" y="830" width="120" height="120" as="geometry" />
        </mxCell>
        <mxCell id="Wlid-hJeQuDWqY3R4Ut1-10" value="&lt;div&gt;AWS Account&lt;/div&gt;&lt;div&gt;Proj1 Prod&lt;br&gt;&lt;/div&gt;" style="points=[[0,0],[0.25,0],[0.5,0],[0.75,0],[1,0],[1,0.25],[1,0.5],[1,0.75],[1,1],[0.75,1],[0.5,1],[0.25,1],[0,1],[0,0.75],[0,0.5],[0,0.25]];outlineConnect=0;gradientColor=none;html=1;whiteSpace=wrap;fontSize=12;fontStyle=0;container=1;pointerEvents=0;collapsible=0;recursiveResize=0;shape=mxgraph.aws4.group;grIcon=mxgraph.aws4.group_account;strokeColor=#CD2264;fillColor=none;verticalAlign=top;align=left;spacingLeft=30;fontColor=#CD2264;dashed=0;" vertex="1" parent="1">
          <mxGeometry x="230" y="990" width="120" height="120" as="geometry" />
        </mxCell>
        <mxCell id="Wlid-hJeQuDWqY3R4Ut1-17" value="IAM Users and Groups" style="shape=image;verticalLabelPosition=bottom;labelBackgroundColor=default;verticalAlign=top;aspect=fixed;imageAspect=0;image=data:image/svg+xml,PHN2ZyB4bWxuczp4bGluaz0iaHR0cDovL3d3dy53My5vcmcvMTk5OS94bGluayIgeG1sbnM9Imh0dHA6Ly93d3cudzMub3JnLzIwMDAvc3ZnIiB2ZXJzaW9uPSIxLjEiIHZpZXdCb3g9IjAgMCAyNCAyNCIgaGVpZ2h0PSIyNHB4IiB3aWR0aD0iMjRweCI+JiN4YTsgICAgJiN4YTsgICAgPHRpdGxlPkljb24tQXJjaGl0ZWN0dXJlLzE2L0FyY2hfQVdTLUlkZW50aXR5LWFuZC1BY2Nlc3MtTWFuYWdlbWVudF8xNjwvdGl0bGU+JiN4YTsgICAgPGRlc2M+Q3JlYXRlZCB3aXRoIFNrZXRjaC48L2Rlc2M+JiN4YTsgICAgPGRlZnM+JiN4YTsgICAgICAgIDxsaW5lYXJHcmFkaWVudCBpZD0ibGluZWFyR3JhZGllbnQtMSIgeTI9IjAlIiB4Mj0iMTAwJSIgeTE9IjEwMCUiIHgxPSIwJSI+JiN4YTsgICAgICAgICAgICA8c3RvcCBvZmZzZXQ9IjAlIiBzdG9wLWNvbG9yPSIjQkQwODE2Ii8+JiN4YTsgICAgICAgICAgICA8c3RvcCBvZmZzZXQ9IjEwMCUiIHN0b3AtY29sb3I9IiNGRjUyNTIiLz4mI3hhOyAgICAgICAgPC9saW5lYXJHcmFkaWVudD4mI3hhOyAgICA8L2RlZnM+JiN4YTsgICAgPGcgZmlsbC1ydWxlPSJldmVub2RkIiBmaWxsPSJub25lIiBzdHJva2Utd2lkdGg9IjEiIHN0cm9rZT0ibm9uZSIgaWQ9Ikljb24tQXJjaGl0ZWN0dXJlLzE2L0FyY2hfQVdTLUlkZW50aXR5LWFuZC1BY2Nlc3MtTWFuYWdlbWVudF8xNiI+JiN4YTsgICAgICAgIDxnIGZpbGw9InVybCgjbGluZWFyR3JhZGllbnQtMSkiIGlkPSJJY29uLUFyY2hpdGVjdHVyZS1CRy8xNi9TZWN1cml0eS1JZGVudGl0eS1Db21wbGlhbmNlIj4mI3hhOyAgICAgICAgICAgIDxyZWN0IGhlaWdodD0iMjQiIHdpZHRoPSIyNCIgeT0iMCIgeD0iMCIgaWQ9IlJlY3RhbmdsZSIvPiYjeGE7ICAgICAgICA8L2c+JiN4YTsgICAgICAgIDxwYXRoIGZpbGw9IiNGRkZGRkYiIGlkPSJBV1MtSWRlbnRpdHktYW5kLUFjY2Vzcy1NYW5hZ2VtZW50X0ljb25fMTZfU3F1aWQiIGQ9Ik01LDE4IEwxOSwxOCBMMTksNyBMNSw3IEw1LDE4IFogTTIwLDYuNSBMMjAsMTguNSBDMjAsMTguNzc2IDE5Ljc3NiwxOSAxOS41LDE5IEw0LjUsMTkgQzQuMjI0LDE5IDQsMTguNzc2IDQsMTguNSBMNCw2LjUgQzQsNi4yMjQgNC4yMjQsNiA0LjUsNiBMMTkuNSw2IEMxOS43NzYsNiAyMCw2LjIyNCAyMCw2LjUgTDIwLDYuNSBaIE03LDE0Ljk5OCBMMTAuOTk4LDE1IEwxMSwxMi4wMDIgTDcuMDAyLDEyIEw3LDE0Ljk5OCBaIE04LDExIEwxMCwxMS4wMDEgTDEwLDkuODU0IEMxMCw5LjI2NCA5LjY0NSw4LjkzOSA5LDguOTM5IEw4Ljk5OSw4LjkzOSBDOC42Nyw4LjkzOSA4LjQwNyw5LjAyNyA4LjIzOSw5LjE5MyBDOC4wNDIsOS4zODggOC4wMDEsOS42NTkgOC4wMDEsOS44NTIgTDgsMTEgWiBNNi4xNDYsMTUuODUyIEM2LjA1MywxNS43NTggNiwxNS42MyA2LDE1LjQ5OCBMNi4wMDIsMTEuNSBDNi4wMDIsMTEuMjI0IDYuMjI2LDExIDYuNTAyLDExIEw3LDExIEw3LjAwMSw5Ljg1MiBDNy4wMDEsOS4zMDEgNy4xODcsOC44MjcgNy41MzcsOC40ODEgQzcuODk2LDguMTI3IDguNDAxLDcuOTM5IDguOTk5LDcuOTM5IEw5LDcuOTM5IEMxMC4xOTYsNy45MzkgMTEsOC43MDggMTEsOS44NTQgTDExLDExLjAwMiBMMTEuNSwxMS4wMDIgQzExLjYzMywxMS4wMDIgMTEuNzYsMTEuMDU1IDExLjg1NCwxMS4xNDggQzExLjk0NywxMS4yNDIgMTIsMTEuMzcgMTIsMTEuNTAyIEwxMS45OTgsMTUuNSBDMTEuOTk4LDE1Ljc3NiAxMS43NzQsMTYgMTEuNDk4LDE2IEw2LjUsMTUuOTk4IEM2LjM2NywxNS45OTggNi4yNCwxNS45NDUgNi4xNDYsMTUuODUyIEw2LjE0NiwxNS44NTIgWiBNMTQsMTQgTDE2LDE0IEwxNiwxMyBMMTQsMTMgTDE0LDE0IFogTTE0LDExIEwxOCwxMSBMMTgsMTAgTDE0LDEwIEwxNCwxMSBaIi8+JiN4YTsgICAgPC9nPiYjeGE7PC9zdmc+;fontColor=default;html=1;" vertex="1" parent="1">
          <mxGeometry x="440" y="590" width="30" height="30" as="geometry" />
        </mxCell>
        <mxCell id="Wlid-hJeQuDWqY3R4Ut1-18" value="Route53" style="shape=image;verticalLabelPosition=bottom;labelBackgroundColor=default;verticalAlign=top;aspect=fixed;imageAspect=0;image=data:image/svg+xml,PHN2ZyB4bWxuczp4bGluaz0iaHR0cDovL3d3dy53My5vcmcvMTk5OS94bGluayIgeG1sbnM9Imh0dHA6Ly93d3cudzMub3JnLzIwMDAvc3ZnIiB2ZXJzaW9uPSIxLjEiIHZpZXdCb3g9IjAgMCAyNCAyNCIgaGVpZ2h0PSIyNHB4IiB3aWR0aD0iMjRweCI+JiN4YTsgICAgJiN4YTsgICAgPHRpdGxlPkljb24tQXJjaGl0ZWN0dXJlLzE2L0FyY2hfQW1hem9uLVJvdXRlLTUzXzE2PC90aXRsZT4mI3hhOyAgICA8ZGVzYz5DcmVhdGVkIHdpdGggU2tldGNoLjwvZGVzYz4mI3hhOyAgICA8ZGVmcz4mI3hhOyAgICAgICAgPGxpbmVhckdyYWRpZW50IGlkPSJsaW5lYXJHcmFkaWVudC0xIiB5Mj0iMCUiIHgyPSIxMDAlIiB5MT0iMTAwJSIgeDE9IjAlIj4mI3hhOyAgICAgICAgICAgIDxzdG9wIG9mZnNldD0iMCUiIHN0b3AtY29sb3I9IiM0RDI3QTgiLz4mI3hhOyAgICAgICAgICAgIDxzdG9wIG9mZnNldD0iMTAwJSIgc3RvcC1jb2xvcj0iI0ExNjZGRiIvPiYjeGE7ICAgICAgICA8L2xpbmVhckdyYWRpZW50PiYjeGE7ICAgIDwvZGVmcz4mI3hhOyAgICA8ZyBmaWxsLXJ1bGU9ImV2ZW5vZGQiIGZpbGw9Im5vbmUiIHN0cm9rZS13aWR0aD0iMSIgc3Ryb2tlPSJub25lIiBpZD0iSWNvbi1BcmNoaXRlY3R1cmUvMTYvQXJjaF9BbWF6b24tUm91dGUtNTNfMTYiPiYjeGE7ICAgICAgICA8ZyBmaWxsPSJ1cmwoI2xpbmVhckdyYWRpZW50LTEpIiBpZD0iSWNvbi1BcmNoaXRlY3R1cmUtQkcvMTYvTmV0d29ya2luZy1Db250ZW50LURlbGl2ZXJ5Ij4mI3hhOyAgICAgICAgICAgIDxyZWN0IGhlaWdodD0iMjQiIHdpZHRoPSIyNCIgeT0iMCIgeD0iMCIgaWQ9IlJlY3RhbmdsZSIvPiYjeGE7ICAgICAgICA8L2c+JiN4YTsgICAgICAgIDxwYXRoIGZpbGw9IiNGRkZGRkYiIGlkPSJBbWF6b24tUm91dGUtNTMtSWNvbl8xNl9TcXVpZCIgZD0iTTE0LjI0MjYxODgsMTIuMTMzMTcxNiBDMTQuNDQ1MDc0LDEyLjMxOTYzNzEgMTQuNTQ3ODEyNCwxMi41NzE2MTc2IDE0LjU0NzgxMjQsMTIuODgyMDU3NCBDMTQuNTQ3ODEyNCwxMy4yMTk3MTEyIDE0LjQyMzkyMTksMTMuNDkzODY1OSAxNC4xODAxNywxMy42OTY0NTgxIEMxMy45Mzg0MzI1LDEzLjg5NjAyNjYgMTMuNjE1MTA4NiwxMy45OTY4MTg3IDEzLjIxNjI0MTcsMTMuOTk2ODE4NyBDMTIuOTA1MDA0NywxMy45OTY4MTg3IDEyLjU5Mjc2MDUsMTMuOTI5Mjg4IDEyLjI4ODU3NDEsMTMuNzk2MjQyMyBMMTIuMjQzMjQ4MywxMy43NzcwOTE4IEwxMi4yNDMyNDgzLDEzLjIzNjg0NTggTDEyLjM0MTk1NzgsMTMuMjY5MDk5MyBDMTMuMDA2NzM1OSwxMy40ODc4MTgzIDEzLjQ5MjIyNTQsMTMuNDkxODUgMTMuNzMyOTU1NiwxMy4yOTIyODE1IEMxMy44NDc3ODA5LDEzLjE5NzUzNjkgMTMuOTAzMTc5MSwxMy4wNjI0NzU0IDEzLjkwMzE3OTEsMTIuODgyMDU3NCBDMTMuOTAzMTc5MSwxMi42NjMzMzg0IDEzLjgzNDY4NjgsMTIuMzczMDU3IDEzLjI0MTQyMjcsMTIuMzczMDU3IEMxMy4wODYzMDc4LDEyLjM3MzA1NyAxMi45MzgyNDM2LDEyLjM4MTEyMDQgMTIuNzkwMTc5NCwxMi4zOTcyNDcxIEwxMi43MDY1Nzg1LDEyLjQwNjMxODQgTDEyLjcwNjU3ODUsMTEuOTcyOTEyMSBMMTMuNjI0MTczNywxMC45NzMwNTM4IEwxMi4yOTE1OTU4LDEwLjk3MzA1MzggTDEyLjI5MTU5NTgsMTAuNDI0NzQ0NSBMMTQuNDA3ODA2MSwxMC40MjQ3NDQ1IEwxNC40MDc4MDYxLDEwLjkxMjU3ODUgTDEzLjUxNTM5MTksMTEuODU3MDAxMSBDMTMuODE1NTQ5MywxMS44NzExMTIgMTQuMDU5MzAxMiwxMS45NjM4NDA4IDE0LjI0MjYxODgsMTIuMTMzMTcxNiBNMTEuNDM5NDcxMiwxMi4wNDk1MTQyIEMxMS42NDk5ODQzLDEyLjI0NjA1ODkgMTEuNzU2NzUxNywxMi41MTkyMDU2IDExLjc1Njc1MTcsMTIuODYyOTA2OSBDMTEuNzU2NzUxNywxMy4xOTk1NTI3IDExLjYzMjg2MTIsMTMuNDc2NzMxMiAxMS4zODgxMDIsMTMuNjg2Mzc4OSBDMTEuMTQ3MzcxNywxMy44OTE5OTQ5IDEwLjgyNjA2MjMsMTMuOTk2ODE4NyAxMC40MzYyNjA2LDEzLjk5NjgxODcgQzEwLjA5ODgzNTQsMTMuOTk2ODE4NyA5Ljc3NzUyNTk3LDEzLjkyOTI4OCA5LjQ4MjQwNDc4LDEzLjc5NjI0MjMgTDkuNDM4MDg2MjQsMTMuNzc2MDgzOSBMOS40MzgwODYyNCwxMy4yMzY4NDU4IEw5LjUzNzgwMjk2LDEzLjI2OTA5OTMgQzEwLjIwNTYwMjgsMTMuNDg0Nzk0NiAxMC43MDMxNzkxLDEzLjQ5NTg4MTcgMTAuOTQ0OTE2NiwxMy4yOTAyNjU3IEMxMS4wNTg3MzQ3LDEzLjE5MzUwNTIgMTEuMTE0MTMyOCwxMy4wNTU0MTk5IDExLjExNDEzMjgsMTIuODY3OTQ2NSBDMTEuMTE0MTMyOCwxMi42NjMzMzg0IDExLjA2MTc1NjQsMTIuNTE1MTczOSAxMC45NTcwMDM1LDEyLjQyNzQ4NDggQzEwLjc2NTYyOCwxMi4yNjcyMjUyIDEwLjM2MTcyNDksMTIuMjYzMTkzNSA5LjY2NjcyOTYyLDEyLjMzODc4NzcgTDkuNTgzMTI4NzQsMTIuMzQ3ODU5IEw5LjU4MzEyODc0LDExLjk0NDY5MDMgTDkuNjgwODMwOTcsMTAuNDI0NzQ0NSBMMTEuNTg4NTQyNywxMC40MjQ3NDQ1IEwxMS41ODg1NDI3LDEwLjk3MzA1MzggTDEwLjIyNzc2MiwxMC45NzMwNTM4IEwxMC4xNzUzODU2LDExLjc4NzQ1NDUgQzEwLjMxOTQyMDgsMTEuNzY0MjcyMyAxMC40NTIzNzY1LDExLjc1MzE4NTIgMTAuNTcxMjMwNywxMS43NTMxODUyIEMxMC45Mzc4NjU5LDExLjc1MzE4NTIgMTEuMjI5OTY1NCwxMS44NTI5Njk0IDExLjQzOTQ3MTIsMTIuMDQ5NTE0MiBNMTQuOTk0MDE5NSwxNS40MjEwMTIgQzEzLjc5NTQwNDUsMTUuNjM2NzA3MiAxMi43Mzg4MTAyLDE2LjEwODQxNDYgMTEuOTk5NDk2NCwxNi41MTQ2MDcgQzExLjI2MTE4OTgsMTYuMTA4NDE0NiAxMC4yMDQ1OTU1LDE1LjYzNjcwNzIgOS4wMDQ5NzMyNSwxNS40MjEwMTIgQzguODEzNTk3NzMsMTUuMzg2NzQyNyA3LjEzMjUxNDk1LDE1LjA2MTE4NCA3LjEzMjUxNDk1LDE0LjI0MTc0MzcgQzcuMTMyNTE0OTUsMTMuODU4NzMzNSA3LjI1NTM5ODE3LDEzLjYxMDc4NDggNy41ODM3NTgyNiwxMy4wNDgzNjQ1IEM3Ljk1ODQ1MTM3LDEyLjQwMTI3ODggOC40NzIxNDM1MywxMS41MTYzMjM2IDguNDcyMTQzNTMsMTAuMjcwNTMyNSBDOC40NzIxNDM1Myw5LjQ5OTQ3MjQyIDguMjk2ODgzODUsOC43NTY2MzQxNyA3Ljk1MDM5MzQ1LDguMDU3MTM2NTYgQzkuMzEzMTg4NTQsOC42MTk1NTY4MyAxMC44MTI5NjgyLDguNTAzNjQ1ODQgMTEuOTk5NDk2NCw3LjgwNjE2NDA3IEMxMy4xODYwMjQ2LDguNTAzNjQ1ODQgMTQuNjg0Nzk3LDguNjE5NTU2ODMgMTYuMDQ5NjA2NSw4LjA1NzEzNjU2IEMxNS43MDMxMTYxLDguNzU2NjM0MTcgMTUuNTI3ODU2NSw5LjQ5OTQ3MjQyIDE1LjUyNzg1NjUsMTAuMjcwNTMyNSBDMTUuNTI3ODU2NSwxMS41MTYzMjM2IDE2LjA0MTU0ODYsMTIuNDAxMjc4OCAxNi40MTYyNDE3LDEzLjA0ODM2NDUgQzE2Ljc0MzU5NDYsMTMuNjEwNzg0OCAxNi44NjY0Nzc4LDEzLjg1ODczMzUgMTYuODY2NDc3OCwxNC4yNDE3NDM3IEMxNi44NjY0Nzc4LDE1LjA2MTE4NCAxNS4xODY0MDIzLDE1LjM4Njc0MjcgMTQuOTk0MDE5NSwxNS40MjEwMTIgTTE2LjUzNTA5NiwxMC4yNzA1MzI1IEMxNi41MzUwOTYsOS41MTQ1OTEyNCAxNi43NDg2MzA4LDguNzg4ODg3NjYgMTcuMTY5NjU2OSw4LjExNTU5NjAxIEMxNy4yODU0ODk1LDcuOTMyMTU0MjggMTcuMjY5MzczNiw3LjY5NjMwMDYxIDE3LjEzMjM4OSw3LjUyODk4NTYyIEwxNi43MzU1MzY3LDcuMDQwMTQzNjMgQzE2LjU4MTQyOSw2Ljg0OTY0NjQ0IDE2LjMxMjQ5NjEsNi43OTkyNTAzNiAxNi4wOTk5Njg1LDYuOTE2MTY5MjcgQzE0LjgwMjY0NCw3LjYzMzgwOTQ3IDEzLjM3NTM4NTYsNy41NDgxMzYxMyAxMi4yODc1NjY5LDYuNzk0MjEwNzUgQzEyLjExNDMyMTcsNi42NzQyNjgwOCAxMS44ODU2NzgzLDYuNjc0MjY4MDggMTEuNzEyNDMzMSw2Ljc5NDIxMDc1IEMxMC42MjQ2MTQ0LDcuNTQ4MTM2MTMgOS4xOTUzNDE1Miw3LjYzMjgwMTU1IDcuOTAwMDMxNDgsNi45MTYxNjkyNyBDNy42ODg1MTExNyw2Ljc5OTI1MDM2IDcuNDE5NTc4MjIsNi44NDk2NDY0NCA3LjI2NDQ2MzMzLDcuMDQwMTQzNjMgTDYuODY3NjEwOTUsNy41Mjg5ODU2MiBDNi43MzA2MjYzOCw3LjY5NjMwMDYxIDYuNzE0NTEwNTQsNy45MzIxNTQyOCA2LjgzMDM0MzA5LDguMTE1NTk2MDEgQzcuMjUxMzY5MjIsOC43ODg4ODc2NiA3LjQ2NDkwNCw5LjUxNDU5MTI0IDcuNDY0OTA0LDEwLjI3MDUzMjUgQzcuNDY0OTA0LDExLjI0NTE5MjcgNy4wNjUwMjk5LDExLjkzNDYxMTEgNi43MTE0ODg4MywxMi41NDEzNzk5IEM2LjM5NzIzMDA5LDEzLjA4MzY0MTcgNi4xMjUyNzU0MiwxMy41NTEzMTc0IDYuMTI1Mjc1NDIsMTQuMjQxNzQzNyBDNi4xMjUyNzU0MiwxNS4yOTgwNDU2IDcuMTM1NTM2NjcsMTYuMTA5NDIyNSA4LjgyNjY5MTg1LDE2LjQxMjgwNjkgQzEwLjAyNjMxNDEsMTYuNjI4NTAyMSAxMS4wNzY4NjUsMTcuMTM4NTEwNSAxMS43NDY2NzkzLDE3LjUyODU3NjIgQzExLjgyNTI0MzksMTcuNTczOTMyNiAxMS45MTI4NzM4LDE3LjU5NzExNDggMTEuOTk5NDk2NCwxNy41OTcxMTQ4IEMxMi4wODcxMjYyLDE3LjU5NzExNDggMTIuMTc0NzU2MSwxNy41NzM5MzI2IDEyLjI1MjMxMzUsMTcuNTI4NTc2MiBDMTIuOTIyMTI3OCwxNy4xMzg1MTA1IDEzLjk3MjY3ODYsMTYuNjI4NTAyMSAxNS4xNzIzMDA5LDE2LjQxMjgwNjkgQzE2Ljg2NDQ2MzMsMTYuMTA5NDIyNSAxNy44NzM3MTczLDE1LjI5ODA0NTYgMTcuODczNzE3MywxNC4yNDE3NDM3IEMxNy44NzM3MTczLDEzLjU1MTMxNzQgMTcuNjAyNzY5OSwxMy4wODM2NDE3IDE3LjI4NzUwMzksMTIuNTQyMzg3OCBDMTYuOTM0OTcwMSwxMS45MzQ2MTExIDE2LjUzNTA5NiwxMS4yNDUxOTI3IDE2LjUzNTA5NiwxMC4yNzA1MzI1IE0xNS41NjgxNDYsMTcuMzczMzU2MiBDMTMuOTU4NTc3MywxNy42NjI2Mjk3IDEyLjU4ODczMTUsMTguNDgzMDc3OSAxMS45OTk0OTY0LDE4Ljg3OTE5MTEgQzExLjQxMDI2MTMsMTguNDgzMDc3OSAxMC4wNDE0MjI3LDE3LjY2MjYyOTcgOC40MzE4NTM5NSwxNy4zNzMzNTYyIEM3LjYyOTA4NDA0LDE3LjIyOTIyMzQgNS4wMDcyMzk1MywxNi41OTAyMDExIDUuMDA3MjM5NTMsMTQuNDM1MjY0NyBDNS4wMDcyMzk1MywxMy41MjYxMTkzIDUuMzU2NzUxNjUsMTIuOTI1Mzk4MSA1LjcyNTQwMTMyLDEyLjI4ODM5MTYgQzYuMDkxMDI5MjcsMTEuNjU3NDMyNiA2LjQ2OTc1MTM0LDExLjAwNTMwNzMgNi40Njk3NTEzNCwxMC4wOTcxNjk5IEM2LjQ2OTc1MTM0LDguODMxMjIwMzcgNS44MTkwNzQ2LDcuODk1ODY5MSA1LjM4OTk5MDU2LDcuNDE4MTE0MjQgQzUuODAxOTUxNTMsNi45MTcxNzcxOSA2LjU1MjM0NDk4LDUuOTk5OTY4NSA3LjAzMTc5MSw1LjM5MTE4Mzg0IEM3Ljc4OTIzNTEzLDYuMDQwMjg1MzcgOC42NTI0Mzk0MSw2LjM5MjA1MDAyIDkuNTA5NjAwMjUsNi4zOTIwNTAwMiBDMTAuNDcwNTA2OCw2LjM5MjA1MDAyIDExLjI3NDI4MzksNi4wMzIyMjE5OSAxMS45OTk0OTY0LDUuMjcwMjMzMjQgQzEyLjcyNTcxNjEsNi4wMzIyMjE5OSAxMy41Mjk0OTMyLDYuMzkyMDUwMDIgMTQuNDkwMzk5Nyw2LjM5MjA1MDAyIEMxNS4zNDc1NjA2LDYuMzkyMDUwMDIgMTYuMjEwNzY0OSw2LjA0MDI4NTM3IDE2Ljk2ODIwOSw1LjM5MTE4Mzg0IEMxNy40NDc2NTUsNS45OTk5Njg1IDE4LjE5ODA0ODUsNi45MTcxNzcxOSAxOC42MTAwMDk0LDcuNDE4MTE0MjQgQzE4LjE4MDkyNTQsNy44OTU4NjkxIDE3LjUzMDI0ODcsOC44MzEyMjAzNyAxNy41MzAyNDg3LDEwLjA5NzE2OTkgQzE3LjUzMDI0ODcsMTEuMDA1MzA3MyAxNy45MDg5NzA3LDExLjY1NzQzMjYgMTguMjc0NTk4NywxMi4yODgzOTE2IEMxOC42NDMyNDgzLDEyLjkyNTM5ODEgMTguOTkyNzYwNSwxMy41MjYxMTkzIDE4Ljk5Mjc2MDUsMTQuNDM1MjY0NyBDMTguOTkyNzYwNSwxNi41OTAyMDExIDE2LjM3MDkxNiwxNy4yMjkyMjM0IDE1LjU2ODE0NiwxNy4zNzMzNTYyIE0xOS4xNDQ4NTM2LDExLjc4MjQxNDkgQzE4LjgxOTUxNTMsMTEuMjE5OTk0NiAxOC41Mzc0ODgyLDEwLjczNDE3NjQgMTguNTM3NDg4MiwxMC4wOTcxNjk5IEMxOC41Mzc0ODgyLDguNzQxNTE1MzUgMTkuNTk4MTExNCw3Ljg1MjUyODQ3IDE5LjYwNzE3NjYsNy44NDU0NzMwMSBDMTkuNzExOTI5NSw3Ljc2MDgwNzYgMTkuNzc4NDA3Myw3LjYzNzg0MTE2IDE5Ljc5MTUwMTQsNy41MDM3ODc1OCBDMTkuODA0NTk1NSw3LjM2OTczNCAxOS43NjQzMDU5LDcuMjM2Njg4MzUgMTkuNjc4NjkwNiw3LjEzMjg3MjQyIEMxOS42NjA1NjAzLDcuMTEwNjk4MTQgMTcuODQ0NTA3NCw0LjkwOTM5NzI5IDE3LjQzMjU0NjQsNC4zNDI5NDUzNCBDMTcuMzQzOTA5Myw0LjIyMDk4NjgyIDE3LjIwNTkxNzUsNC4xNDUzOTI3IDE3LjA1NTgzODgsNC4xMzYzMjE0IEMxNi45MTM4MTgxLDQuMTMwMjczODcgMTYuNzU5NzEwNCw0LjE4NTcwOTU2IDE2LjY1Njk3Miw0LjI5NDU2NTEgQzE2LjAwMDI1MTgsNC45OTcwODY0OCAxNS4yMzA3MjA4LDUuMzg0MTI4MzggMTQuNDkwMzk5Nyw1LjM4NDEyODM4IEMxMy42Njc0ODUsNS4zODQxMjgzOCAxMy4wNDE5ODkzLDUuMDI2MzE2MiAxMi4zOTkzNzA1LDQuMTg2NzE3NDggQzEyLjIxMDAwOTQsMy45Mzc3NjA4NCAxMS43ODg5ODMzLDMuOTM3NzYwODQgMTEuNjAwNjI5NSw0LjE4NjcxNzQ4IEMxMC45NTgwMTA3LDUuMDI2MzE2MiAxMC4zMzI1MTUsNS4zODQxMjgzOCA5LjUwOTYwMDI1LDUuMzg0MTI4MzggQzguNzY4MjcxOTUsNS4zODQxMjgzOCA3Ljk5OTc0ODE5LDQuOTk3MDg2NDggNy4zNDIwMjA3Nyw0LjI5NDU2NTEgQzcuMjQwMjg5NTgsNC4xODU3MDk1NiA3LjA5NzI2MTU3LDQuMTMxMjgxNzkgNi45NDQxNjExNiw0LjEzNjMyMTQgQzYuNzkzMDc1MjMsNC4xNDUzOTI3IDYuNjU2MDkwNjUsNC4yMjA5ODY4MiA2LjU2NzQ1MzU3LDQuMzQyOTQ1MzQgQzYuMTU1NDkyNiw0LjkwOTM5NzI5IDQuMzM5NDM5NzIsNy4xMTA2OTgxNCA0LjMyMDMwMjE3LDcuMTMyODcyNDIgQzQuMjM0Njg2ODEsNy4yMzY2ODgzNSA0LjE5NDM5NzIzLDcuMzY5NzM0IDQuMjA4NDk4NTgsNy41MDM3ODc1OCBDNC4yMjE1OTI3LDcuNjM3ODQxMTYgNC4yODgwNzA1MSw3Ljc2MDgwNzYgNC4zOTI4MjM0Miw3Ljg0NTQ3MzAxIEM0LjQwMjg5NTgxLDcuODUzNTM2MzkgNS40NjI1MTE4LDguNzI2Mzk2NTIgNS40NjI1MTE4LDEwLjA5NzE2OTkgQzUuNDYyNTExOCwxMC43MzQxNzY0IDUuMTgwNDg0NzMsMTEuMjE5OTk0NiA0Ljg1NTE0NjM2LDExLjc4MjQxNDkgQzQuNDUzMjU3NzksMTIuNDcyODQxMiA0LDEzLjI1NDk4ODQgNCwxNC40MzUyNjQ3IEM0LDE2LjQxNjgzODYgNS41OTA0MzEyMiwxNy44ODYzODgzIDguMjU0NTc5NzksMTguMzY2MTU5IEMxMC4xMTM5NDQsMTguNjk5NzgxMSAxMS42NzgxODcsMTkuODg0MDg5IDExLjY5MzI5NTYsMTkuODk2MTg0MSBDMTEuNzgzOTQ3MSwxOS45NjU3MzA3IDExLjg5MTcyMTgsMjAgMTEuOTk5NDk2NCwyMCBDMTIuMTA4Mjc4MiwyMCAxMi4yMTYwNTI5LDE5Ljk2NTczMDcgMTIuMzA2NzA0NCwxOS44OTYxODQxIEMxMi4zMjI4MjAzLDE5Ljg4NDA4OSAxMy44NzY5OTA5LDE4LjcwMTc5NjkgMTUuNzQ2NDI3NCwxOC4zNjYxNTkgQzE4LjQwOTU2ODgsMTcuODg2Mzg4MyAyMCwxNi40MTY4Mzg2IDIwLDE0LjQzNTI2NDcgQzIwLDEzLjI1NDk4ODQgMTkuNTQ2NzQyMiwxMi40NzI4NDEyIDE5LjE0NDg1MzYsMTEuNzgyNDE0OSIvPiYjeGE7ICAgIDwvZz4mI3hhOzwvc3ZnPg==;html=1;fontColor=default;" vertex="1" parent="1">
          <mxGeometry x="440" y="400" width="30" height="30" as="geometry" />
        </mxCell>
        <mxCell id="Wlid-hJeQuDWqY3R4Ut1-20" value="Shared VPC" style="shape=image;verticalLabelPosition=bottom;labelBackgroundColor=default;verticalAlign=top;aspect=fixed;imageAspect=0;image=data:image/svg+xml,PHN2ZyB4bWxuczp4bGluaz0iaHR0cDovL3d3dy53My5vcmcvMTk5OS94bGluayIgeG1sbnM9Imh0dHA6Ly93d3cudzMub3JnLzIwMDAvc3ZnIiB2ZXJzaW9uPSIxLjEiIHZpZXdCb3g9IjAgMCAyNCAyNCIgaGVpZ2h0PSIyNHB4IiB3aWR0aD0iMjRweCI+JiN4YTsgICAgJiN4YTsgICAgPHRpdGxlPkljb24tQXJjaGl0ZWN0dXJlLzE2L0FyY2hfQW1hem9uLVZpcnR1YWwtUHJpdmF0ZS1DbG91ZF8xNjwvdGl0bGU+JiN4YTsgICAgPGRlc2M+Q3JlYXRlZCB3aXRoIFNrZXRjaC48L2Rlc2M+JiN4YTsgICAgPGRlZnM+JiN4YTsgICAgICAgIDxsaW5lYXJHcmFkaWVudCBpZD0ibGluZWFyR3JhZGllbnQtMSIgeTI9IjAlIiB4Mj0iMTAwJSIgeTE9IjEwMCUiIHgxPSIwJSI+JiN4YTsgICAgICAgICAgICA8c3RvcCBvZmZzZXQ9IjAlIiBzdG9wLWNvbG9yPSIjNEQyN0E4Ii8+JiN4YTsgICAgICAgICAgICA8c3RvcCBvZmZzZXQ9IjEwMCUiIHN0b3AtY29sb3I9IiNBMTY2RkYiLz4mI3hhOyAgICAgICAgPC9saW5lYXJHcmFkaWVudD4mI3hhOyAgICA8L2RlZnM+JiN4YTsgICAgPGcgZmlsbC1ydWxlPSJldmVub2RkIiBmaWxsPSJub25lIiBzdHJva2Utd2lkdGg9IjEiIHN0cm9rZT0ibm9uZSIgaWQ9Ikljb24tQXJjaGl0ZWN0dXJlLzE2L0FyY2hfQW1hem9uLVZpcnR1YWwtUHJpdmF0ZS1DbG91ZF8xNiI+JiN4YTsgICAgICAgIDxnIGZpbGw9InVybCgjbGluZWFyR3JhZGllbnQtMSkiIGlkPSJJY29uLUFyY2hpdGVjdHVyZS1CRy8xNi9OZXR3b3JraW5nLUNvbnRlbnQtRGVsaXZlcnkiPiYjeGE7ICAgICAgICAgICAgPHJlY3QgaGVpZ2h0PSIyNCIgd2lkdGg9IjI0IiB5PSIwIiB4PSIwIiBpZD0iUmVjdGFuZ2xlIi8+JiN4YTsgICAgICAgIDwvZz4mI3hhOyAgICAgICAgPHBhdGggZmlsbD0iI0ZGRkZGRiIgaWQ9IkFtYXpvbi1WaXJ0dWFsLVByaXZhdGUtQ2xvdWRfSWNvbl8xNl9TcXVpZCIgZD0iTTE2Ljk5NywxMS44MjEwNzQzIEwxNS4wNzQsMTAuODAzMDc0MyBMMTUuMDc0LDE4LjQ2MTA3NDMgQzE2Ljk1OCwxOC4wODMwNzQzIDE2Ljk5NiwxNS42MzIwNzQzIDE2Ljk5NywxNS41MTkwNzQzIEwxNi45OTcsMTEuODIxMDc0MyBaIE0xMi44NTEsMTcuODc1MDc0MyBDMTMuMTc4LDE4LjIwMjA3NDMgMTMuNTgxLDE4LjQwMDA3NDMgMTQuMDc0LDE4LjQ3NzA3NDMgTDE0LjA3NCwxMC43ODIwNzQzIEwxMS45ODEsMTEuODI5MDc0MyBMMTEuOTgxLDE1LjUyMDA3NDMgQzExLjk4MSwxNS41MzcwNzQzIDExLjk4OCwxNy4wMTAwNzQzIDEyLjg1MSwxNy44NzUwNzQzIEwxMi44NTEsMTcuODc1MDc0MyBaIE0xNy45OTcsMTEuNTIwMDc0MyBMMTcuOTk3LDE1LjUyMDA3NDMgQzE3Ljk5NywxNi45MDIwNzQzIDE3LjI4LDE5LjUxNDA3NDMgMTQuNTY3LDE5LjUxNDA3NDMgQzEzLjU3MywxOS41MTQwNzQzIDEyLjc1NiwxOS4xOTkwNzQzIDEyLjEzOCwxOC41NzYwNzQzIEMxMC45ODA5NDYsMTcuNDExMDc0MyAxMC45OCwxNS41OTMwNzQzIDEwLjk4MDk0NiwxNS41MTYwNzQzIEwxMC45ODA5NDYsMTEuNTIwMDc0MyBDMTAuOTgwOTQ2LDExLjMzMDA3NDMgMTEuMDg5LDExLjE1NzA3NDMgMTEuMjU4LDExLjA3MjA3NDMgTDE0LjM1MSw5LjUyNjA3NDMyIEMxNC40OTUsOS40NTMwNzQzMiAxNC42NjcsOS40NTYwNzQzMiAxNC44MDgsOS41MzEwNzQzMiBMMTcuNzMsMTEuMDc4MDc0MyBDMTcuODk0LDExLjE2NDA3NDMgMTcuOTk3LDExLjMzNTA3NDMgMTcuOTk3LDExLjUyMDA3NDMgTDE3Ljk5NywxMS41MjAwNzQzIFogTTE5LjY5LDkuNzM1MDc0MzIgTDE4Ljc1MywxMC4wODEwNzQzIEMxOC41NDcsOS41MjQwNzQzMiAxOC4xOTksOS4yOTYwNzQzMiAxNy41NTUsOS4yOTYwNzQzMiBDMTcuMjksOS4yOTYwNzQzMiAxNy4wNzEsOS4wOTAwNzQzMiAxNy4wNTYsOC44MjYwNzQzMiBDMTYuOTg2LDcuNjYzMDc0MzIgMTYuMzg5LDcuMTA2MDc0MzIgMTUuODYyLDcuMDc5MDc0MzIgQzE1LjE4OSw3LjA0ODA3NDMyIDE0Ljk2OCw3LjMzNjA3NDMyIDE0Ljg5NCw3LjQzMTA3NDMyIEMxNC43ODMsNy41NzcwNzQzMiAxNC42LDcuNjQ5MDc0MzIgMTQuNDIyLDcuNjI0MDc0MzIgQzE0LjI0MSw3LjU5NjA3NDMyIDE0LjA4OSw3LjQ3MzA3NDMyIDE0LjAyNiw3LjMwMTA3NDMyIEMxMy44MTEsNi43MTMwNzQzMiAxMy41MDksNi4yNDIwNzQzMiAxMy4wNzYsNS44MjAwNzQzMiBDMTIuMTQ0LDQuOTE4MDc0MzIgMTAuNDA3LDQuNzMxMDc0MzIgOC44NTEsNS4zNjkwNzQzMiBDNy43ODksNS44MDQwNzQzMiA3LjEwMiw2LjkyNzA3NDMyIDcuMTAyLDguMjMwMDc0MzIgQzcuMTAyLDguMzc0MDc0MzIgNy4xMjEsOC41OTgwNzQzMiA3LjEzOCw4LjczNzA3NDMyIEM3LjE2OCw4Ljk4NzA3NDMyIDcuMDA3LDkuMjIwMDc0MzIgNi43NjIsOS4yODEwNzQzMiBDNS41NzYsOS41NzUwNzQzMiA1LDEwLjI1NTA3NDMgNSwxMS4zNTcwNzQzIEM1LDExLjQwNzA3NDMgNC45OTksMTEuNDU4MDc0MyA1LjAwNCwxMS41MDgwNzQzIEM1LjA2MSwxMi41MTcwNzQzIDUuNjEzLDEzLjU3NzA3NDMgNi45OTUsMTMuNTc3MDc0MyBMOC45OTcsMTMuNTc3MDc0MyBMOC45OTcsMTQuNTc3MDc0MyBMNi45OTUsMTQuNTc3MDc0MyBDNS4zMDksMTQuNTc3MDc0MyA0LjEwNywxMy4zNzMwNzQzIDQuMDA3LDExLjU4MTA3NDMgQzQuMDAxLDExLjUxNzA3NDMgNCwxMS40MzcwNzQzIDQsMTEuMzU3MDc0MyBDNCw5LjkzMzA3NDMyIDQuNzQ1LDguOTA4MDc0MzIgNi4xMDksOC40MzMwNzQzMiBDNi4xMDUsOC4zNjAwNzQzMiA2LjEwMiw4LjI4OTA3NDMyIDYuMTAyLDguMjMwMDc0MzIgQzYuMTAyLDYuNTE5MDc0MzIgNy4wMzMsNS4wMzMwNzQzMiA4LjQ3Myw0LjQ0MzA3NDMyIEMxMC4zODYsMy42NjIwNzQzMiAxMi41NjQsMy45MzMwNzQzMiAxMy43NzIsNS4xMDIwNzQzMiBDMTQuMTQ1LDUuNDY2MDc0MzIgMTQuNDQ3LDUuODY5MDc0MzIgMTQuNjg2LDYuMzIzMDc0MzIgQzE0Ljk4Niw2LjE2MTA3NDMyIDE1LjM4Miw2LjA1MTA3NDMyIDE1LjkxMyw2LjA4MDA3NDMyIEMxNi45NjgsNi4xMzQwNzQzMiAxNy43ODYsNy4wMzUwNzQzMiAxOC4wMDQsOC4zMjgwNzQzMiBDMTguODI0LDguNDQ5MDc0MzIgMTkuMzksOC45MjEwNzQzMiAxOS42OSw5LjczNTA3NDMyIEwxOS42OSw5LjczNTA3NDMyIFoiLz4mI3hhOyAgICA8L2c+JiN4YTs8L3N2Zz4=;html=1;" vertex="1" parent="1">
          <mxGeometry x="600" y="440" width="30" height="30" as="geometry" />
        </mxCell>
        <mxCell id="Wlid-hJeQuDWqY3R4Ut1-21" value="Transit&lt;br&gt;Gateway" style="shape=image;verticalLabelPosition=bottom;labelBackgroundColor=default;verticalAlign=top;aspect=fixed;imageAspect=0;image=data:image/png,iVBORw0KGgoAAAANSUhEUgAAAHAAAABxCAYAAAANvCfuAAAdo0lEQVR4Xu1dB7xUxbn/7va9RVOMBsvzJRqKvYOiImJvqEhRkY6VokYUOzZU0AiisVC8ig1FLBQLRRSVIthpRk2igubFJMpt2+/7fzNz9pyze87ds3d37z37nvPLZnHvKTPzn++br09FMxr93Mp2Bip+BrBssRMd/xnA8savfAFs/s9WSny1lpqb6ij1j83y+8ct4puiddQc2YblKf7Hy5QqQjVE4RrxXYFvzy92oYpf7Eye33Ymzy/xvVPnsoSyLCiwOQJwtn5OiQ1vUhLfqa2bABCAEuhgCxffEij5rf8uAcx9HV/h/e9DBaC+Tr3Ed0UQoLu8uRZABij+/nxKrF8OwEBhloDlBkajQB1Ya6BNwCvQGVD/fmeSd/fDqGL7XVwJpasAZPaX/HIdxVY8g++1NpTVEgCFUaCZms3v8e4OMPc9i3z7neUqIF0BIAMXe/sZAZygNMH17FijnFjeyzw7d8Snk2CtzT9ubYGFGoGV9/Me6O1yLKW+24g9FCwZ+2YWqzX0oUKxZ77PA4oMHDnKFVTZrgCm/r2Voq9PB6tckLWHZQJY8csO5NunJ3k6dCTfHocIwYNbdOnDFMNHop4fBQZ6XkqBHpeKW1kASn2/iRKbl1Ly6zXU/BMWhAWARpB9oMjAkaPbFch2AZApLvoagFvxLAk7Am9UmqCh9h8G0LvHwQIs36GnpQEz8q/YulcoOvcmE6tlyvR3P5+8v8N9vztUgvPdJoqtnE2Jj1/JAjo8+DEhvGS21PcbKfn3NRT/9CVBoRoFZve1mXz7nk2B7u0DZJsDyMDF3gJwLO6bKEaxRoj4fgDm26eHAK+lVn/3KYp1yqs8v+pA4eEzALa1wMFU1vTYMFDXFgUk7oEqUTn2jRbfw/fFVzwgKXMb3ysXHdO7BmwFWKt/n7OxeEa3+Kxi/7HNAEx+8QE1zfsTJMq/yAnQWJ5SATy/2pkCRw0g/2GnCT0tV5PUd7OJzVWNW2RJqcZnpf4DEB85xyTVhvrfT77OvXK9Uvw9/smLFH9nmgJSLjo5Fvmp2H5nCvd/qs3YapsAGAFwsbfmqAkyCycMXPDEkQK4fFrT7CsgvCxPA+g/+AwK9bnV0SNiy/9M/NHYtq/zsRTqP83RvdpF8U/nAcgHJJAaiIZFGThiDPmPKD01lhTA1L+/o8bpV1Nqy+f6KlXsh6nM36M/hU66MK+J0y5umDoAQsfmNICVo+eQt0MnR89K/u19aqodmgaQWW7lmJbZqN2D42trKb72cUuKZN1RUON2pdMhSwZgfNVCisybYrHXNVPgmAEUPGmkI1ZpN3F14w80if01Ez9yBJ52Uf2EfUz3V9+0Pq/7TWz5p28p/u40GB1elAsqzVKh7gS3o0DPG8i399mtfn5LN5YEwOiiGRR9dYb+XmYx2B9YyAiddyP5/nBwwYNxE4Amtvre/Yqt8q+6hB04HCwVn2K3ogPYNPs2iq9eaFiFciC+fXtQ+PwbqaIyt4DiZJBSAv0uPUnhETPI9/uWpVbtucx6Gx/uo7PQ33aiyovmOXltzmtSoMbYu/dTcoOiRoOK5DtoKAWPuSHnM/K5oGgANjfWUeOj44mlTRMbwX8Fz76cgj0H5NOvnNdmCjGBXhdTEB8nLfLSDZT46CWDENMLQsz9Tm51fE0MlBhfaXimEnS8O+5Fwb5PF81QXhQAGbyGqaMo+e3nafcNj9Tza7DMgcwyD3I8cKcXZqoRLBRVQZBhF1FLLQU3VOPUE3QOAe4Q6n07+Q4ovo0z9T8bKPLyJWZJlbeS3+xFob4QbrA/FtoKBpDBq58yCpKm1O806z/vd5Vj/yxALEVjQ0DDJLDRtJdC7rGVI2bagsjgNdWyIv9tGkDP9rjn8sWl6KJ4JrPUyPPnA0S8U/NP8jyBEkPnMCUWBmLBANZPHAzKU8q56qBn1z9Q5YV3lww8bbbj69+kyJNXZHktWCcMHD4QdlOpVrDakPzr+xRf9aQCXJcUJfWdWTIATSDWyYVTocyG3l27URAgFtIKAjDy/BSKLnvOZMv07ronVYHyiiWs5BpcZMFkir/3lKIoO2N2tjeCbwgcA2M2Pm3RmqPbQInnUfM/N5rsvt69+1Dw+Mmt7kKrAYwumEmRhTPTrKiZjc9gl9XXPt5m4Gmjji6BR2IZPBK23ohsAP3dLoAuek2rJ641N6ZB/AEgGvRFf1eoGN0ub80jWxcTE1u5iJqeuMPUCc+vf0tVlz9YcrZpN0oWamLLHjIYt6UOlhlSwd6K4FlgmzCftUfjPTE6F5So2KlmzgucMJl8Xc7Ju0t5U2DqX99T/R1DpIVFrSIB3hXtB55x1LF1L1Ny05uU2LjMBKCvc0/y7nWsAE4EOLVjS0Ggic4916TwV4S2o9C5C2F22zWvnuUN4LbrYcn/FyvQvBvLVV593ePkheDiplZ3w34GAJup+tZP3dQ9CH6rBCWaArB22IvC5ykjiMPe5gVgZP5Mii6YZRJagqcNp9Cpwx2+ru0uq7thf7HANLXGbQDyTMQ/nEXxt2+XnEy51fwHDCX/0XBSO2yOAUz98D3VgfqMrhP/4SdT5eDimoYc9jvnZeUAIA8ituAiSnwJT4ghNDJ49rPk3aVbzjFKJugwN6Luur6UEqxTGaZ34H3vgXYTWnKNrlwAFJLpUzBI1GtRAuAazErPXZRriGoXcwBgdP4siuBj5NfhwddDWT7F0Uva4yK374HGORH74bxzdbkC//J3vRxO7tyqRU4KZNZZf+9oaoZzVjb48444mcIuZZ3axJgBhKB16yftsY4cvzO6+CpKbnwhvUUJqXTQOzlNbTkBbHxsIqzqi2D+4TgxxFPusBNVXele1qkDaBRi3A+gYKW1R1Fz7CdFiUS+/YciTojjfuxbiwAKwQV7n9FqEOo3Gm6b/o5XVntdWE4sVJuj+OopFF8zJQ0gz3t48LtUUWOvG7YIYOMsUN8qfTP1QHCpmTi3vTDJ673lCCAPsKn2SGmlUQZvts4Eet1rO3ZbAAX1XQvqMwTchodch/3PvYKLcZTlCmBi41yKLbnKLDCO+NR2L7QFUFDfylf1sIMyoj4GstyEGOPia3pcUaFS2fyHskQKt5lFswWwbnw/qfcpC394KKjPxWpD5tjKlQJ5HImPZlHsHRXjytYkOH1DF2AvtHD+WgIYe/dV8OKJajOF5Aljdc2d5bH3WUuh7rOFtrShC4n0CVBhFBKpstAET5mOfA8VCmK42RLAhsljKPH5h2kAhd435Pq8hIj2vricKZDnLrbiViTjsPFE+jI9MK2FztSi2/XZzQJQCC/jNeEFF+IBNXc+71qTmd1CKec9kMeU3ALrzItQ1ww20vDwz7LYaBaAgn1Ceddu9O62J1Xf9Fh7E1Te7y93CuQBRwBgausqnRMeeTMyhM2enywAGyaPRZIjYjsV8qEBrLj3y3sC2/oGjk4TRRCQC5j821rkBCJvIu1OQgED5AtyKhln5XI+YHs7dZ3MT3zNfUh+1RV7z85dwUYRg2S3BzY31tO2Mazn6f6p6ptmkXc3dzlrjQPgUMEYgpoSCKngzV80A9uxK3LAkWhBBDTliiN1MtGluoZDEZtmd09ToJBGB75nYqMmCkxs/ohYgDG6jHj/c2Njiou9+zSU3odMgOkAWsfEyL/rQU6BHpcgMu0yNw5R9Knpie7KMiP7HOyNLKxdDk/31wRg0zPTkG/OgMnBC+kT+p/bmgjQRX5g6jtOWyu8TgwXLuBUa86ydVuLrbiFEp/o0qhv/+FI59YN3CYAGyZh/xPqg5yUyksnkv/Ao1w1JhEa/+hI4kpNmVUlKsLVSKpEfjySXDjnj/c8bqJQEPbGxKZl4mNMsU5zGwZxkPtATGx8HtF2umlNqBO99X3QBOBPw482saOau55zlfogwHsE4HFJEcEKBTwIqUeWL7JznWYnxZHYwhm6mZUoGPTwBe4CMb0PKrbPfsLwsM+yWWjy6y+o/pZh6UmpqKqm7abCFqpa/KMVwi/IYfQytAKSHVQMzw4dyL//0QhMLb2Ru/6uUw2UJwH0HXQ6hU4fl7dUKfZQgBhf/YS+aHkxdOgMSkRwcgnLbLGwlfxyMaXwSf6wPp03wUkvHmTzen5/gilGtGnGviY/YZgFGeViSlNg/MMV1PgArC1a3H6nA6h6HLJOwVLZqZv2yGfmgytKYHNb6LQRCAUoDZCxxY9QdMkjpj0vcNxFFDzOWUqZ3T4QW/4gigwhX95A0YEel1Hg6NIINokvFlP8jXEAxCgxZ+/jnu13JR9CKnydz5H64Hcr030M9LwXv7Of1hDUFH3lMaRCQWFXAAaO60ueqhrEwujh8/IJ1nVdtN85xDB4yoii7pvMOhvuRBEEzbWFb/+R52HBjCvKeyIvX0fJT6CGiEBlKe1VjVlc9EoTseVIfv2wFsMwAmaYU4mIaTFxXAxTbOJTHQcWYjSFPk2BjTPvRJKI7j6qgPuoGVHY5goMLbxMTS5/BY5F8YI+uQNynM5+03M3U2LtfNOeVzn22bzZpt37uDRl4yN9pHCjxWd2G4Skk/FOu5jzuvh7Uym2CgmfItzfGkAZtpIyACgB5Wjt5rpv0r/7OvXFHEsnbxpAIYFuhgRqWOVGtlJRWQ3PcD/ydTwA5Rhlwibvh9Flc6TXXgNQfYeRXubfr0fOgeW6QOQBTjhGr+jECZn9biFOIStmS/5tDXSuIXIcPMkIv68cvaQoe2F8/TyKva64BT+bP9hjvQcOQUR7N/HhlvrnBorDlZTcBM+PDQ78O3slgifJGgRpAOsnDKPkN19YKMXSnVR11TRbiZSFmoYplxGXFdEsH5xeVn3LvIIqUXAHE58tx8RemV59HtRMqxqfX/i5U6AbJnU1FL0jCp1xR1GqEzbOwALcplMQCyohTrO2yYMQuRMvDpBUl7Yq6dzPs8PeuF8KmGkAt13dT7FMNdw0L3bmjWAQ6+4cRJ5Ig2QDeHEY6dX+rqc6nT/L65rmgH2uA/sUvVV73+nQi0rQYm+xQPOgzka7IgXt+GsLepOgvteuNu1tlcPewv7achKLAHHOyQZhR98bWQJlSdQM4GhEB8MWmkm6ge4nOfYFRhbOoNgibLaK/H3796DKkXcXNAGND12I7Np1eIbcN8IXPepY38v3xYKNzh6iUztXrxjB1SZa3zhHPgnJU5sTP+rFBE50ltBpNmYbAIRNVNMF0xQolHi1yltrzE58/gEKCED8NvJv7d8WzxYbtIo3Vcsp3Qe7eqHVE7B6HdRSa82Uc1G7xmnHW86DKGqnsTM7813mWC1UrvDA+eRBfryTltyykqIvqeoeGYUBKy/52kyBdgBuP32Fk3elr9k2ig2tFlKWDYD6pDCLNKwym0mquZvLmJSu1d+mJjdjEYoFpY3BBFR29q8VIWhjq7ryy7w63/jg7pYLqnQAXgYALcpIWg+ef7U2RtuJ2m0KoIGCTPVCMxeojXHDamytB9C8UBwDWHUVSjF2Ql0yBy35zefUcPdgMyhi1ZqVU01Ul4/MAFCxKVsWCgmUq/eWorE+2DBZpXUJdSKDI9hxkfTvLY1VPivU72moDV0ddT8FM1tkjrJs5WKh22yEmNAZwyh4+lBHL2ycfTslUOROG7gPeiCXGymkNfzpXFWVkCen1EIMqhjO5gUo3+Xd/RAYt2ErLaDpQowEUNZMG+voidElf6TkZhUNaFxMVkKMnRpRUVVF1TfWCl2wpSbUiJvOTuuBfK1QI7oVpkZEXr4HlQBVLRVMavD4i4htoKVo0dfvQm6CAoxVlv16U/CMOwt6VfwzqBFvQI0QDTo1Zx1BkMmVC89qRATOXF0PzKFG1N8yHCWFUbAnrThqN7AiD+VZKPLWIApFHtInf2uKPFdNqr61MBGchxx7H5V5n5+Qpgr2+VVPeLugSbW7uWHaCXBVaXkJYHd9p4lDQAppbMdsmtHDFO7ROkVeB9BSkW+AJyIBj4QVgBpL4chsNnJrBQ3YU5H4ywcUe/M56JDmo26KQX1izbIpDYZsY0mtUuiC8Y9foiiM2kbLR9W41UUxpbEHIvrKJYICjbZQ3159yH/QMGTkdhFTnNqyGubJlSIeVHorrAU8z866U9fWmM2ZSFxSJEuizKEDMQUG4JEIFdEjEXkFbPQdsFHFHWQdtmIas7nSIozZBurz74+gpzNUdHohJKjujb55Gwik1gSgRhi5wkI8MLmlchmzo4ufp8izqButdBymNDZgi6oUWssysGZLl8Ge/VDEzToRo7XzwOdLNNyluZPwFGzo/oPhyO3rrEZ2rveKvW/1bNOKrxoNd1KRY2RiK6fC8H+/rTdCAmpWF3yHQeDJcCf5D7kClf3lHKcpMPYOB/Riw1YgeZVDN/beIpEfL11LhhdkvIzBDg+8nvwHFO6BsJrwKBy6MeHQ1fsQPP5ieEgKE2hMDl0tmAuHgQSOHpUL91b9PbH+BYA4NatSU+bWxbbSQK97RLWK6Ev9ceiX7tBlT4SWJ5EGUITUX4MAXgVgZkgFAxn/eIUQVFJcnZBdIhBqOGZUhFTsd1RJa6TxXsjxMCISTa3SZpZKu5+HffnivH2DvKcy5emFXxkPeSRPJZy5pW6JDXNlWAWkzeYfNsj5hJHas2MX8sIL79tDT2SRIRX6nsieCBZkTBTI/yF0wSYYtNUqd11QE1ipiEizCGriir3+g5z5CLn8JFftldFpuqDAUWzhQbVFZ52FLAahTnBwr4G1alaYLAAbJnFWEld/V5Z/zglEbKibGu+HjdOzwwrZKF7xS3CELj3Jj5poXCtUC59nwNlQzSH38ZVPSJ+fGL2kOv728IEdg90FHvcu8dXrFHsVRzMYs5TswgqzAnt79aXwgOJXWi90QcjY0BGmoufGvdEIjKaX6oDpe6h2nYhE6wfhoshCS6Hj5PujS2GNER56KdxwLEwASS5aM4fWb/qQGu5RZh7cIBI773JnaL0YHNcJ5ZPLsowPOmXlApBD6/2If3FrsoseWi/H1GJoPTt0ObWa62Brk+K2fTBzVTM18hF0iQ9wMpmF0dwKwIpQNfkOPJMC3Qa6kuq0MZqN2RLAzBxBi/Qy7INIctEmI3jGUATOIuDX5U2kl331vjwMEmf/cY1safWQLNMD77oXx9Exu3RDzVAn05n4eKYhVx77dK70MsmWWKGX4W+C50IfZDtoubX/Ewmez54CtU0dCYRFyKGEWkCv5R4oiFTLETQENVX9kY26znyCbgG63AG08kaEL9BD6m0B5D+YixzAtsnSaH/3SaMtLZZyB5CL/SQ2QYDU7L9OixzwpIg8iT+rvEDeRyqrRIktNpeVSyuXeqF28ymL/ehxoWxWy2Sfcnu3qBcqpFGU2ZJhhioUABRYDrny2oSUM4Ci3NZSjn1V7id4I8Io9GPVbCs1RV6ZRdH5j+kWAKSR1Ux0r06YObhyZqFc8I4atiCdQAZIc4aSXcE7WwCFMDMWZjSDuUlU6XWZac2OBZUrgGzkFtRnME6EB9mXnMxRbvIOuD70JE9O5iwXKixXAItWbpJXduoHBCqJgq+qsfvmNFbs3XfMQDYLdf+xA5l9FkXuUGJLNMX5Cir4ys9pglIf4wOu1EOFRHoHS6Tte/pJLmm43ChQJLO8gNNc6g15gKLY6z0tDjVnzWwhkV6H01oMiS+B4/pRuK+z2MZcE12qv5dbrbTo4nEoeq57HdgjHzoLcT8tlFu2VSMyJ5VDKvjogQoP4qWVZMSFz30d3WudMasR7i56LgSXJVoCqHIb4diBQDGOHUjrVbcNlaEUmgMUAk31dSjJ4VJWWi4sNM0606eZyZTq8OB3HDGnnCxUewrHgDbg/AhjzrzvgKOo6uK7HL2orS8qFxYaRcUKyTo1QZEr1eO8CIenmDkGUAg0c5Con3FiZwh7YRBFDdzWygHA+CocM7CaT7rW43J8XcdSAOzTacsLQH5o/e1D1Jm5LOpKfl115YM4qdpd+6HbWSgXNIg8ZS6dIljnkPzyMfMGkMMK5QGQHL0mAWQFv+ry9j/NRdYMRT20jRYHQCLYiR25vgN7O13cJbtOHgCJUzzVydY8j212ACSPKrZyITU9zlV9DSF5DOLY9gMxDk989IUbDTkUWh4CcwrutYo+Q+BSoOclOLm6fYAU4PGx5IZQee5bmx3Bqi3LCA5BjvIhyNrmi05wkG/V2AfbXDKNLpyM2qE4ydo2JkYHUPSfvdtteIK1Nmcczhh5Eok6QuLUQ+jFvtetdXp13izUyFcan7hdP5pHC8nHUax8GHKpChFk8jUOaBKRaQoY+a2u4iIKNr/zz215krU8wfp8UczHmH3sOxAHXPW4sdXsuiAA+a0N912GFDO9whNPGGc2VeIsec4iKmXjk6ujc3FcqREwVFjyd0fNUNTI9iGIiRvXCo2tfBJpWy9nAR3qPxV7Y2E5gLnGmNq2BalrF8O2jBB6sb4Ue/9NFwqfX1jRooIB5BDEhimjIJlyzoIhCgxJoaUGsX4Sl5/U65vxggkPnyGKvVq1FK5tqh1mKvjKIYaVY5GJVKKTrRm8yHPY81SlJi6zJebpN52RxfVMzvMBcy2OggHkFwgQkaHLtdNEBzXpFCCGR04qyQnXkvo4QlkXpKrGLQJ4skqvXRMgPgzbLofXq76GzkRJLeQDFrslv1mNBJprpLQpmuyrFwkswXNQasviKJ18+1AUADUQ6wFis8hcMue4BU9BCcqTR+bbtxav55rZiQ3L05PCiS2hc5zlC3KhV/5oALJ6Eepf3NDJ+LpaZC7jhOqMqHHvbl2ROPpwUcAT7NjpIchOZz8y9z5MjjoiRrELXnlcM41BLNa+2DB1gKpeIVd15WhUc0dCi5PG2UlNtUPTADLLrRyDk6SL0Jiyo4uuRurYEhN34EXNKdXBkyYV4S36I4oOID86sohrpqEconH14d8MXvBkVPU9DBaIAlvdeFh+DPpdzUTOqnLe6ifsY7q/+iYVQOv8EVlXJr9ZQ9FXrzbUHdXZu/+IMaLESLFbSQDkTsZQLyY6b4ooUmBU+CU1noaVWBg1uglAprrY0jsogcqERv1OWlhqYDi4gXx79yk2duJ5JQOQHy7Kj9x/qblQuWYRATUGepyLjyrmlufw6u9GMuqP+rn24REzHFcxTH2/mRofxoQqCua8icqLePLzb/F3p+F4nFpk0Go5h4Z6Ljsiba33QzlLS+b/1hKz0MwORRZNR81MjaWaS2d4fo0jA04ciaT9/NhqphDDGbpBfJw0zs7VU6uxN7VCiIl/Og+VMx4QEiZDJqVvQRLiy3fIEAr2LP2RfSWlQONkcjXfhmmXoPq9OrDDsH/xdWJ/PPFCx0DG178JsxRX8lVKMUpQVkGQyXUWkkgOnaryzzU1ovftsI2elRN7ZpXJT1B5ae3jpvraRh+pZ6fOSEK5HmZFZ/XQcr40xwVtBqDWj8irj4LlLJTHGFhUNeRDPLx7HkyhEy7MWdTOWpGfaasLiiN7hCKv9DIWrJAXXzm2ZQk0+fUapJ4vFeDJ9OzsAjy81/kOGYxjcYovqLSEYZsDKPZGUGH0tekCyCwDtGBD0tzk2aUj+Q85nXx74iidDh2zxpH8ai3y5XHEQQb74oLogcMHijx5bqw2JP+K/PhVs5W3Qt+nQoL6spV4zquPA7Dk17j372vAIg26rYl7gAUzcEeOLppulw9VtguAWgclkKDItcoe2ELBV7awePc4GNLcMUh07JSmMpFmvczKmG10J5kNC9qiMXokGLAEgEr9A2csbV6aVcHCql6ob9+zANyokgopucBsVwBNQL7+KCW+RG3sH78H7bEXIZtNGfU+ZlmeXQAkKFNk5XLpEYcp1iJjVxwG2QvGgI34bDKZ1qQwwv+n90EruczHBfgOHQRddnC7UFwmoK4A0Nip2PvzQZELcK7Q2izWmDmp2f9tpLTcFGj7PAsAvbsfKkDz/tdhJTN856I2q7+7DkAjVSYAYmLdAuK9zooqig6gkeKYwqEf+jr2gqEbdVBL5K1oDWjGe1wLoLGTbM1Jbt0sjNcpfLNAYg1o6ymQWSMXQGA1gPVCz05dXAta2QFotUoZUFYL+LBjUYkJ/2avtzDdQdTn+tdG/6SgIOiKYu/E/lcR3k5QGLH4z4ciu7DIjxPqLAsKdDKQ/6/X/AxgmSP/vyVxdIBQMjnkAAAAAElFTkSuQmCC;html=1;" vertex="1" parent="1">
          <mxGeometry x="520" y="440" width="29.73" height="30" as="geometry" />
        </mxCell>
        <mxCell id="Wlid-hJeQuDWqY3R4Ut1-25" value="Client VPN" style="image;aspect=fixed;perimeter=ellipsePerimeter;html=1;align=center;shadow=0;dashed=0;fontColor=#BBB9B9;labelBackgroundColor=default;fontSize=12;spacingTop=3;image=img/lib/ibm/security/vpn.svg;strokeColor=default;verticalAlign=top;fontFamily=Helvetica;fillColor=default;" vertex="1" parent="1">
          <mxGeometry x="720" y="440" width="30" height="30" as="geometry" />
        </mxCell>
        <mxCell id="Wlid-hJeQuDWqY3R4Ut1-26" value="Amazon EKS" style="sketch=0;outlineConnect=0;fontColor=#232F3E;gradientColor=none;strokeColor=#ffffff;fillColor=#232F3E;dashed=0;verticalLabelPosition=bottom;verticalAlign=top;align=center;html=1;fontSize=10;fontStyle=1;spacing=3;shape=mxgraph.aws4.productIcon;prIcon=mxgraph.aws4.eks;labelBackgroundColor=default;fontFamily=Helvetica;labelPosition=center;" vertex="1" parent="1">
          <mxGeometry x="430" y="840" width="30" height="30" as="geometry" />
        </mxCell>
        <mxCell id="Wlid-hJeQuDWqY3R4Ut1-27" value="Amazon EKS" style="sketch=0;outlineConnect=0;fontColor=#232F3E;gradientColor=none;strokeColor=#ffffff;fillColor=#232F3E;dashed=0;verticalLabelPosition=bottom;verticalAlign=top;align=center;html=1;fontSize=10;fontStyle=1;spacing=3;shape=mxgraph.aws4.productIcon;prIcon=mxgraph.aws4.eks;labelBackgroundColor=default;fontFamily=Helvetica;labelPosition=center;" vertex="1" parent="1">
          <mxGeometry x="430" y="1020" width="30" height="30" as="geometry" />
        </mxCell>
      </root>
    </mxGraphModel>
  </diagram>
</mxfile>
